<svg height="90pt" preserveAspectRatio="xMidYMid meet" viewBox="0 0 90 90" width="90pt" xmlns="http://www.w3.org/2000/svg"><path d="m470 885c-20-11-24-20-23-52 2-24-7-57-25-93-25-50-35-59-117-106-177-101-255-203-255-333 0-85 28-144 87-185 37-26 54-30 128-34 47-3 85-9 85-15 0-5 13-7 32-3 25 5 30 4 20-6-15-15-16-38 0-38 6 0 20 7 30 17 17 15 18 15 18-10 0-17 5-27 15-27s15 10 15 27c0 25 1 25 18 10 33-30 61-10 30 22-11 10-7 11 16 5 18-4 31-2 36 6 4 7 35 12 81 13 93 2 130 26 167 105 46 102 30 242-39 325-18 21-73 69-124 108-51 38-100 80-108 93-9 13-26 60-39 104-23 80-23 80-48 67zm46-165c28-83 54-126 122-204 28-32 58-78 66-104 34-99 11-207-56-268-40-36-41-36-118-32-67 3-82 7-105 28-68 63-74 158-17 248 59 91 75 153 76 289 1 66 3 119 5 117s14-35 27-74zm-66-133c-10-69-29-115-86-220-37-65-37-138 0-200 14-25 26-48 26-51s-17-6-38-6c-95 0-156 80-156 205 0 98 34 168 117 237 68 56 101 95 125 148l17 35 3-38c2-21-2-71-8-110zm224-11c112-83 148-145 148-256 1-108-48-192-121-206l-33-7 29 41c40 54 56 117 51 194-5 79-31 134-103 216-80 92-75 95 29 18zm-402-21c-79-73-106-134-106-235-1-85 14-137 51-181l26-30-29 7c-84 20-134 89-134 185 0 99 65 197 183 274 74 49 77 43 9-20z" transform="matrix(.1 0 0 -.1 0 90)"/></svg>